<svg width="152" height="34" xmlns="http://www.w3.org/2000/svg" stroke-miterlimit="2" stroke-linejoin="round" fill-rule="evenodd">
 <g>
  <title>Layer 1</title>
  <path id="svg_1" fill-rule="nonzero" fill="#435ebe" d="m0,27.472c0,4.409 6.18,5.552 13.5,5.552c7.281,0 13.5,-1.103 13.5,-5.513s-6.179,-5.552 -13.5,-5.552c-7.281,0 -13.5,1.103 -13.5,5.513z"/>
  <circle id="svg_2" fill="#41bbdd" r="8.8" cy="8.8" cx="13.5"/>
  <path stroke="null" id="svg_3" fill-rule="nonzero" fill="#435ebe" d="m92.07519,9.30982c0.00079,-0.00294 0.00119,-0.00691 0.00119,-0.01193l0,-0.15348c0,-0.00484 -0.00037,-0.00864 -0.00112,-0.01141s-0.00172,-0.00415 -0.00293,-0.00415s-0.00216,0.00139 -0.00286,0.00415s-0.00105,0.00657 -0.00105,0.01141l0,0.10682l-0.01187,-0.08348c-0.00056,-0.0038 -0.00116,-0.00665 -0.00182,-0.00856c-0.00065,-0.00173 -0.00142,-0.00259 -0.0023,-0.00259s-0.00165,0.00087 -0.0023,0.00259s-0.00126,0.00458 -0.00182,0.00856l0.16371,0.06791l-0.17566,-0.09124c0,-0.00467 -0.00037,-0.00847 -0.00112,-0.01141c-0.0007,-0.00276 -0.00165,-0.00415 -0.00286,-0.00415s-0.00216,0.00139 -0.00286,0.00415s-0.00105,0.00657 -0.00105,0.01141l0,0.15348c0,0.00501 0.00037,0.00899 0.00112,0.01193c0.00079,0.00311 0.00184,0.00467 0.00314,0.00467c0.00182,0 0.00324,-0.00372 0.00426,-0.01115l0.10496,-0.24492l-0.07403,0.24492l0.00726,0.00648zm0.0178,-0.21783c0.00475,0 0.01636,0.16391 0.01864,0.15509c0.00233,-0.00864 -0.01553,-0.07897 -0.01553,-0.09677l0.01903,-0.00615c0,-0.00467 -0.00037,-0.00839 -0.00112,-0.01115c-0.00074,-0.00259 -0.00177,-0.00389 -0.00307,-0.00389c-0.00121,0 -0.00221,0.00139 -0.003,0.00415c-0.00074,0.00276 -0.00112,0.00639 -0.00112,0.01089l0,0.0057c-0.00079,-0.00674 -0.00205,-0.01201 -0.00377,-0.01582c-0.00168,-0.0038 -0.00363,-0.0057 -0.00587,-0.0057c-0.00228,0 -0.00435,0.00173 -0.00622,0.00519s-0.15064,0.20294 0.00127,-0.06539s-0.00727,0.09244 -0.00727,0.09987c0,0.00933 0.00063,0.01668 0.00189,0.02204c0.0013,0.00536 -0.0051,0.12797 -0.00222,0.13039s0.01537,-0.11509 0.02044,-0.11509l0.00175,0l0,0.00596c0,0.00847 -0.00049,0.01461 -0.00147,0.01841c-0.00098,0.00398 -0.00256,0.00596 -0.00475,0.00596a0.0143,-0.05308 0 0 0 -0.00412,-0.00233c-0.0014,-0.00139 -0.00305,-0.00346 -0.00496,-0.00622c-0.00121,-0.00224 -0.0021,-0.00337 -0.00265,-0.00337c-0.00084,0 -0.00154,0.00113 -0.0021,0.00337c-0.00051,0.00224 -0.00077,0.00519 -0.00077,0.00882c0,0.00294 0.00019,0.00544 0.00056,0.00752c-0.00363,-0.22318 0.08124,-0.17001 0.00203,0.00622c0.00163,0.00328 0.00356,0.00587 0.0058,0.00778c0.00228,0.0019 -0.00358,-0.16546 -0.00139,-0.16546zm0.00593,0.05968c0.00233,0 0.00421,0.00285 0.00566,0.00856c0.00149,0.00587 0.00223,0.01339 0.00223,0.02256l0,0.00544l-0.00126,0c-0.00312,0 -0.00554,-0.00052 -0.00726,-0.00156s-0.15797,0.14979 0.0129,0.00057s-0.17086,0.14922 -0.01771,-0.01664c0.04777,-0.00253 0.00051,-0.01011 0.00154,-0.01374c0.00107,-0.00346 0.00237,-0.00519 0.00391,-0.00519zm0.05049,0.00311c0.00261,0 0.00391,-0.00406 0.00391,-0.01219c0,-0.0038 -0.00033,-0.00683 -0.00098,-0.00907c-0.00065,-0.00207 -0.00163,-0.00311 -0.00293,-0.00311l-0.02332,0c-0.00117,0 -0.00212,0.00139 -0.00286,0.00415a0.00362,-0.01344 0 0 1 -0.00112,0.00985c0,0.00398 0.00042,0.00778 0.00126,0.01141l0.01795,0.077l-0.01557,0c-0.0013,0 -0.00228,0.00104 -0.00293,0.00311s-0.18248,0.10053 -0.00341,-0.12468s0.00275,0.14075 0.00341,0.14282s0.00163,0.00311 0.00293,0.00311l0.02256,0c0.00121,0 0.00216,-0.00139 0.00286,-0.00415c0.00074,-0.00259 0.00112,-0.00587 0.00112,-0.00985c0,-0.00415 -0.0004,-0.00795 -0.00119,-0.01141l-0.01802,-0.077l0.01634,0zm0.03632,0.01037c0.00079,0 0.00142,-0.00113 0.00189,-0.00337c0.00051,-0.00224 0.00077,-0.00527 0.00077,-0.00907c0,-0.00536 -0.00086,-0.00985 -0.00258,-0.01348c-0.00158,-0.00328 -0.00337,-0.00596 -0.00538,-0.00804c-0.002,-0.0019 -0.00391,-0.00285 -0.00573,-0.00285c-0.00549,0 -0.00985,0.00587 -0.01306,0.01763s-0.00482,0.02783 -0.00482,0.04822c0,0.01296 0.0007,0.02446 0.0021,0.03448s0.00335,0.0178 0.00587,0.02333c0.00256,0.00553 0.00545,0.0083 0.00866,0.0083c0.00307,0 0.00575,-0.0025 0.00803,-0.00752s0.00405,-0.0121 0.00531,-0.02126s0.00189,-0.01996 0.00189,-0.03241c0,-0.00743 -0.00088,-0.01115 -0.00265,-0.01115l-0.0206,0c0.00028,-0.01193 0.00119,-0.02074 0.00272,-0.02645c0.00154,-0.00553 0.00377,-0.0083 0.0067,-0.0083c0.00149,0 0.00279,0.00069 0.00391,0.00207c0.00117,0.00139 0.00247,0.00328 0.00391,0.0057c0.0014,0.00276 0.00242,0.00415 0.00307,0.00415zm-0.01208,0.07233c-0.00237,0 -0.00428,-0.00276 -0.00573,-0.0083c-0.0014,-0.00553 -0.00223,-0.01348 -0.00251,-0.02385l0.01578,0c-0.00009,0.01054 -0.00079,0.0185 -0.0021,0.02385c-0.0013,0.00553 -0.00312,0.0083 -0.00545,0.0083zm0.04122,0.0223c0.00121,0.00035 0.00216,-0.00061 0.00286,-0.00285s0.00105,-0.00562 0.00105,-0.01011c0,-0.00467 -0.0003,-0.00813 -0.00091,-0.01037s-0.0017,-0.00372 -0.00328,-0.00441l-0.0021,-0.00078c-0.00275,-0.00104 -0.00477,-0.0045 -0.00608,-0.01037c-0.00126,-0.00587 -0.00189,-0.01322 -0.00189,-0.02204l0,-0.05445c0,-0.00501 -0.00042,-0.0089 -0.00126,-0.01167c-0.00084,-0.00259 -0.00189,-0.00389 -0.00314,-0.00389s-0.0023,0.0013 -0.00314,0.00389c-0.00079,0.00276 -0.00119,0.00665 -0.00119,0.01167l0,0.10034c0,0.00484 0.0004,0.00856 0.00119,0.01115c0.00084,0.00259 0.00186,0.00389 0.00307,0.00389s0.00219,-0.0013 0.00293,-0.00389c0.00074,-0.00242 0.00112,-0.00596 0.00112,-0.01063l0,-0.01037c0.00088,0.00761 0.00219,0.01348 0.00391,0.01763c0.00177,0.00415 0.00372,0.00648 0.00587,0.007l0.00098,0.00026z"/>
  <text transform="rotate(-0.0952019 89.6773 18.0486) matrix(1.22598 0 0 1.23149 -7.41092 -1.03615)" stroke="#435ebe" xml:space="preserve" text-anchor="start" font-family="'Cabin'" font-size="24" stroke-width="0" id="svg_4" y="23.59787" x="30.51426" fill="#8037ce">MESHOP</text>
 </g>

</svg>